<?xml version="1.0" encoding="UTF-8"?>
<svg id="Chevron_BG" data-name="Chevron BG" xmlns="http://www.w3.org/2000/svg" viewBox="0 0 360 360">
  <defs>
    <style>
      .cls-1 {
        fill: #171823;
      }

      .cls-2 {
        fill: #d6d6d6;
      }
    </style>
  </defs>
  <rect className="cls-1" width="360" height="360" rx="86.33" ry="86.33"/>
  <path className="cls-2" d="m263.11,195.22l-135.77,135.77c-8.41,8.41-22.04,8.41-30.45,0-4.2-4.2-6.31-9.72-6.3-15.22,0-5.51,2.1-11.02,6.3-15.22l120.55-120.55L96.89,59.45c-8.41-8.41-8.41-22.04,0-30.44,4.2-4.2,9.72-6.31,15.22-6.31,5.51,0,11.02,2.1,15.22,6.3l135.77,135.77c4.2,4.2,6.31,9.72,6.3,15.22,0,5.51-2.1,11.02-6.3,15.22Z"/>
</svg>