<?xml version="1.0" encoding="UTF-8"?>
<svg id="CogBG" xmlns="http://www.w3.org/2000/svg" viewBox="0 0 360 360">
  <defs>
    <style>
      .cls-1 {
        fill: #171823;
      }

      .cls-2 {
        fill: #d6d6d6;
      }
    </style>
  </defs>
  <rect class="cls-1" y="-.07" width="360" height="360" rx="86.33" ry="86.33"/>
  <path class="cls-2" d="m330.94,218.6l-27.79-16.05c2.81-15.14,2.81-30.67,0-45.8l27.79-16.05c3.2-1.83,4.63-5.61,3.59-9.13-7.24-23.23-19.57-44.24-35.69-61.72-2.48-2.68-6.52-3.33-9.66-1.5l-27.79,16.05c-11.68-10.05-25.12-17.81-39.67-22.9V29.46c0-3.65-2.54-6.85-6.13-7.63-23.95-5.35-48.48-5.09-71.25,0-3.59.78-6.13,3.98-6.13,7.63v32.1c-14.48,5.15-27.93,12.92-39.67,22.9l-27.73-16.05c-3.2-1.83-7.18-1.24-9.66,1.5-16.12,17.42-28.45,38.43-35.69,61.72-1.11,3.52.39,7.31,3.59,9.13l27.79,16.05c-2.81,15.14-2.81,30.67,0,45.8l-27.79,16.05c-3.2,1.83-4.63,5.61-3.59,9.13,7.24,23.23,19.57,44.24,35.69,61.72,2.48,2.68,6.52,3.33,9.66,1.5l27.79-16.05c11.68,10.05,25.12,17.81,39.67,22.9v32.1c0,3.65,2.54,6.85,6.13,7.63,23.95,5.35,48.48,5.09,71.25,0,3.59-.78,6.13-3.98,6.13-7.63v-32.1c14.48-5.15,27.93-12.92,39.67-22.9l27.79,16.05c3.2,1.83,7.18,1.24,9.66-1.5,16.12-17.42,28.45-38.43,35.69-61.72.98-3.59-.46-7.37-3.65-9.2Zm-150.98,13.24c-28.77,0-52.2-23.42-52.2-52.2s23.42-52.2,52.2-52.2,52.2,23.42,52.2,52.2-23.42,52.2-52.2,52.2Z"/>
</svg>